<svg width="120" height="35" viewBox="0 0 120 35" fill="none" xmlns="http://www.w3.org/2000/svg">
<path d="M15.5069 16.29L15.5069 26.6037C15.5069 27.9615 17.2207 28.5564 18.0619 27.4905L26.2021 17.1768C26.943 16.2381 26.2743 14.8586 25.0785 14.8586L16.9383 14.8586C16.1478 14.8586 15.5069 15.4995 15.5069 16.29Z" fill="#6139FF"/>
<path d="M39.4873 23.9884C38.5073 23.9884 37.6421 23.7409 36.8917 23.2457C36.1413 22.7455 35.5543 22.0411 35.1306 21.1325C34.707 20.2188 34.4951 19.1392 34.4951 17.8937C34.4951 16.6584 34.707 15.5864 35.1306 14.6778C35.5543 13.7692 36.1439 13.0674 36.8993 12.5722C37.6548 12.0771 38.5277 11.8295 39.518 11.8295C40.2836 11.8295 40.8885 11.9571 41.3326 12.2124C41.7818 12.4625 42.1238 12.7483 42.3586 13.0699C42.5985 13.3864 42.7848 13.6467 42.9175 13.8509H43.0707V8.0624H44.8777V23.7434H43.1319V21.9364H42.9175C42.7848 22.1508 42.596 22.4213 42.3509 22.748C42.1059 23.0696 41.7563 23.358 41.302 23.6132C40.8477 23.8634 40.2428 23.9884 39.4873 23.9884ZM39.7323 22.3652C40.4572 22.3652 41.0697 22.1763 41.57 21.7986C42.0702 21.4158 42.4505 20.8874 42.7108 20.2137C42.9711 19.5348 43.1013 18.7512 43.1013 17.863C43.1013 16.9851 42.9737 16.2168 42.7185 15.5584C42.4632 14.8948 42.0855 14.3792 41.5853 14.0117C41.085 13.6391 40.4674 13.4527 39.7323 13.4527C38.9667 13.4527 38.3286 13.6493 37.8182 14.0423C37.3128 14.4303 36.9325 14.9586 36.6773 15.6273C36.4272 16.2908 36.3021 17.0361 36.3021 17.863C36.3021 18.7002 36.4297 19.4607 36.685 20.1447C36.9453 20.8236 37.3281 21.3647 37.8335 21.768C38.3439 22.1661 38.9769 22.3652 39.7323 22.3652ZM51.7519 23.9884C50.6187 23.9884 49.6412 23.7383 48.8194 23.2381C48.0026 22.7327 47.3722 22.0283 46.9281 21.1248C46.4892 20.2162 46.2697 19.1596 46.2697 17.9549C46.2697 16.7503 46.4892 15.6885 46.9281 14.7697C47.3722 13.8458 47.9899 13.1261 48.7811 12.6105C49.5774 12.0898 50.5064 11.8295 51.5681 11.8295C52.1807 11.8295 52.7856 11.9316 53.3828 12.1358C53.98 12.34 54.5236 12.6718 55.0137 13.1312C55.5037 13.5855 55.8942 14.1878 56.1851 14.9382C56.4761 15.6885 56.6216 16.6124 56.6216 17.7099V18.4756H47.556V16.9136H54.784C54.784 16.25 54.6512 15.6579 54.3858 15.1372C54.1255 14.6166 53.7529 14.2057 53.2679 13.9045C52.7881 13.6033 52.2215 13.4527 51.5681 13.4527C50.8484 13.4527 50.2257 13.6314 49.6999 13.9887C49.1792 14.3409 48.7785 14.8003 48.4978 15.3669C48.217 15.9335 48.0767 16.541 48.0767 17.1892V18.2306C48.0767 19.1187 48.2298 19.8716 48.5361 20.4893C48.8474 21.1018 49.2788 21.5689 49.8301 21.8905C50.3813 22.207 51.022 22.3652 51.7519 22.3652C52.2266 22.3652 52.6554 22.2988 53.0382 22.1661C53.4262 22.0283 53.7605 21.8241 54.0413 21.5536C54.322 21.2779 54.5389 20.9359 54.6921 20.5276L56.4378 21.0176C56.2541 21.6097 55.9452 22.1304 55.5114 22.5796C55.0775 23.0237 54.5415 23.3708 53.9034 23.6209C53.2654 23.8659 52.5482 23.9884 51.7519 23.9884ZM67.0122 11.9827L62.6631 23.7434H60.8255L56.4765 11.9827H58.4366L61.6831 21.3545H61.8056L65.052 11.9827H67.0122ZM76.1107 14.6166L74.4874 15.076C74.3854 14.8054 74.2348 14.5426 74.0357 14.2873C73.8417 14.027 73.5763 13.8126 73.2394 13.6442C72.9025 13.4757 72.4712 13.3915 71.9454 13.3915C71.2257 13.3915 70.6259 13.5574 70.1461 13.8892C69.6713 14.2159 69.434 14.6319 69.434 15.1372C69.434 15.5864 69.5973 15.9412 69.924 16.2015C70.2507 16.4618 70.7612 16.6788 71.4554 16.8523L73.2011 17.2811C74.2526 17.5363 75.0362 17.9268 75.5517 18.4526C76.0673 18.9733 76.3251 19.6445 76.3251 20.4663C76.3251 21.1401 76.1311 21.7424 75.7431 22.2733C75.3603 22.8042 74.8243 23.2227 74.1352 23.529C73.4461 23.8353 72.6447 23.9884 71.731 23.9884C70.5315 23.9884 69.5386 23.7281 68.7525 23.2074C67.9664 22.6868 67.4688 21.9262 67.2595 20.9257L68.9746 20.4969C69.1379 21.1299 69.4468 21.6046 69.9011 21.9211C70.3605 22.2376 70.9602 22.3958 71.7004 22.3958C72.5426 22.3958 73.2113 22.2172 73.7065 21.8598C74.2067 21.4974 74.4568 21.0635 74.4568 20.5582C74.4568 20.1498 74.3139 19.8078 74.028 19.5322C73.7422 19.2515 73.3032 19.0422 72.7111 18.9043L70.7509 18.4449C69.6739 18.1897 68.8827 17.7941 68.3774 17.2581C67.8771 16.7171 67.627 16.0407 67.627 15.2291C67.627 14.5655 67.8133 13.9785 68.1859 13.4681C68.5637 12.9576 69.0767 12.5569 69.7249 12.266C70.3783 11.975 71.1185 11.8295 71.9454 11.8295C73.1092 11.8295 74.0229 12.0847 74.6865 12.5952C75.3552 13.1056 75.8299 13.7794 76.1107 14.6166ZM82.2058 23.9884C81.1032 23.9884 80.1538 23.7281 79.3575 23.2074C78.5612 22.6868 77.9487 21.9696 77.5199 21.0559C77.0911 20.1422 76.8767 19.0983 76.8767 17.9243C76.8767 16.7298 77.0962 15.6758 77.5352 14.7621C77.9793 13.8432 78.5969 13.1261 79.3881 12.6105C80.1844 12.0898 81.1135 11.8295 82.1752 11.8295C83.0021 11.8295 83.7474 11.9827 84.411 12.2889C85.0745 12.5952 85.6182 13.024 86.0418 13.5753C86.4655 14.1265 86.7284 14.7697 86.8305 15.5048H85.0235C84.8857 14.9688 84.5794 14.4941 84.1047 14.0806C83.6351 13.662 83.0021 13.4527 82.2058 13.4527C81.5014 13.4527 80.8838 13.6365 80.3529 14.004C79.8271 14.3665 79.4162 14.8795 79.1202 15.543C78.8292 16.2015 78.6837 16.9748 78.6837 17.863C78.6837 18.7716 78.8266 19.5628 79.1125 20.2366C79.4035 20.9104 79.8118 21.4336 80.3376 21.8063C80.8684 22.1789 81.4912 22.3652 82.2058 22.3652C82.6754 22.3652 83.1017 22.2835 83.4845 22.1202C83.8673 21.9568 84.1915 21.722 84.4569 21.4158C84.7223 21.1095 84.9112 20.742 85.0235 20.3132H86.8305C86.7284 21.0074 86.4757 21.6327 86.0725 22.1891C85.6743 22.7404 85.146 23.1794 84.4875 23.506C83.8342 23.8276 83.0736 23.9884 82.2058 23.9884ZM91.3158 24.0191C90.5706 24.0191 89.8942 23.8787 89.2868 23.5979C88.6793 23.3121 88.197 22.9012 87.8396 22.3652C87.4823 21.8241 87.3037 21.1707 87.3037 20.4051C87.3037 19.7313 87.4364 19.1851 87.7018 18.7665C87.9673 18.3429 88.322 18.0111 88.7661 17.7711C89.2102 17.5312 89.7002 17.3526 90.2362 17.2352C90.7773 17.1127 91.3209 17.0157 91.8671 16.9442C92.5817 16.8523 93.1611 16.7834 93.6052 16.7375C94.0544 16.6864 94.3811 16.6022 94.5852 16.4848C94.7945 16.3674 94.8992 16.1632 94.8992 15.8723V15.811C94.8992 15.0556 94.6924 14.4685 94.279 14.05C93.8706 13.6314 93.2504 13.4221 92.4184 13.4221C91.5557 13.4221 90.8794 13.611 90.3893 13.9887C89.8993 14.3665 89.5548 14.7697 89.3557 15.1985L87.6406 14.5859C87.9468 13.8713 88.3552 13.3149 88.8656 12.9168C89.3812 12.5135 89.9427 12.2328 90.5501 12.0745C91.1627 11.9112 91.765 11.8295 92.3571 11.8295C92.7349 11.8295 93.1687 11.8755 93.6588 11.9673C94.1539 12.0541 94.6312 12.2353 95.0906 12.511C95.5551 12.7866 95.9405 13.2026 96.2467 13.759C96.553 14.3154 96.7062 15.0607 96.7062 15.9948V23.7434H94.8992V22.1508H94.8073C94.6848 22.406 94.4806 22.6791 94.1947 22.9701C93.9089 23.261 93.5286 23.5086 93.0539 23.7128C92.5792 23.917 91.9998 24.0191 91.3158 24.0191ZM91.5914 22.3958C92.3061 22.3958 92.9084 22.2554 93.3984 21.9747C93.8936 21.694 94.2662 21.3315 94.5163 20.8874C94.7715 20.4434 94.8992 19.9763 94.8992 19.4863V17.8324C94.8226 17.9243 94.6541 18.0085 94.3938 18.0851C94.1386 18.1565 93.8425 18.2203 93.5056 18.2765C93.1738 18.3275 92.8497 18.3735 92.5332 18.4143C92.2219 18.45 91.9692 18.4807 91.7752 18.5062C91.3056 18.5675 90.8666 18.667 90.4583 18.8048C90.055 18.9375 89.7283 19.1392 89.4782 19.4097C89.2332 19.6751 89.1107 20.0375 89.1107 20.4969C89.1107 21.1248 89.3429 21.5995 89.8074 21.9211C90.277 22.2376 90.8717 22.3958 91.5914 22.3958ZM100.194 8.0624V23.7434H98.3872V8.0624H100.194ZM106.818 23.9884C105.684 23.9884 104.707 23.7383 103.885 23.2381C103.068 22.7327 102.438 22.0283 101.994 21.1248C101.555 20.2162 101.335 19.1596 101.335 17.9549C101.335 16.7503 101.555 15.6885 101.994 14.7697C102.438 13.8458 103.056 13.1261 103.847 12.6105C104.643 12.0898 105.572 11.8295 106.634 11.8295C107.246 11.8295 107.851 11.9316 108.449 12.1358C109.046 12.34 109.589 12.6718 110.079 13.1312C110.569 13.5855 110.96 14.1878 111.251 14.9382C111.542 15.6885 111.687 16.6124 111.687 17.7099V18.4756H102.622V16.9136H109.85C109.85 16.25 109.717 15.6579 109.452 15.1372C109.191 14.6166 108.819 14.2057 108.334 13.9045C107.854 13.6033 107.287 13.4527 106.634 13.4527C105.914 13.4527 105.291 13.6314 104.766 13.9887C104.245 14.3409 103.844 14.8003 103.564 15.3669C103.283 15.9335 103.142 16.541 103.142 17.1892V18.2306C103.142 19.1187 103.296 19.8716 103.602 20.4893C103.913 21.1018 104.345 21.5689 104.896 21.8905C105.447 22.207 106.088 22.3652 106.818 22.3652C107.292 22.3652 107.721 22.2988 108.104 22.1661C108.492 22.0283 108.826 21.8241 109.107 21.5536C109.388 21.2779 109.605 20.9359 109.758 20.5276L111.504 21.0176C111.32 21.6097 111.011 22.1304 110.577 22.5796C110.143 23.0237 109.607 23.3708 108.969 23.6209C108.331 23.8659 107.614 23.9884 106.818 23.9884Z" fill="white"/>
<path d="M16.6997 20.6407V10.3269C16.6997 8.96914 14.9859 8.37429 14.1446 9.44013L6.00448 19.7538C5.26359 20.6926 5.93222 22.0721 7.12809 22.0721H15.2682C16.0588 22.0721 16.6997 21.4312 16.6997 20.6407Z" fill="#8A6DFF"/>
</svg>
